
<svg width="512px" height="470px" viewBox="0 0 512 470" version="1.1" xmlns="http://www.w3.org/2000/svg" xmlns:xlink="http://www.w3.org/1999/xlink">
    <g id="Page-1" stroke="none" stroke-width="1" fill="none" fill-rule="evenodd">
        <g id="Group-4" transform="translate(0.000000, 0.000000)" fill-rule="nonzero">
            <path d="M143.000129,275 L154.250129,350 L457.000129,350 C464.249129,350 470.461129,344.816 471.758129,337.683 L480.583129,289.146 C481.922129,281.78 476.263129,274.999 468.777129,274.999 L143.000129,274.999 L143.000129,275 Z" id="Path" fill="#EF4444"></path>
            <path d="M468.776129,275 L310.249129,275 L310.249129,350 L457.000129,350 C464.249129,350 470.461129,344.816 471.758129,337.683 L480.583129,289.146 C481.922129,281.781 476.263129,275 468.776129,275 L468.776129,275 Z" id="Path" fill="#D43F3F"></path>
            <path d="M116.996129,100 L145.496129,290 L480.423129,290 L511.754129,117.683 C513.428129,108.475 506.355129,100 496.996129,100 L116.996129,100 Z M469.932129,180 L429.991129,180 L435.764129,130 L479.023129,130 L469.932129,180 Z M259.316129,180 L219.084129,180 L214.902129,130 L258.452129,130 L259.316129,180 Z M288.457129,130 L332.042129,130 L329.587129,180 L289.321129,180 L288.457129,130 Z M259.835129,210 L260.699129,260 L225.776129,260 L221.594129,210 L259.835129,210 Z M289.839129,210 L328.115129,210 L325.660129,260 L290.703129,260 L289.839129,210 Z M358.150129,210 L396.327129,210 L390.554129,260 L355.695129,260 L358.150129,210 Z M359.623129,180 L362.078129,130 L405.565129,130 L399.792129,180 L359.623129,180 Z M184.798129,130 L188.980129,180 L138.496129,180 L130.996129,130 L184.798129,130 Z M142.996129,210 L191.489129,210 L195.671129,260 L150.496129,260 L142.996129,210 Z M420.754129,260 L426.527129,210 L464.477129,210 L455.386129,260 L420.754129,260 Z" id="Shape" fill="#EB5B5B"></path>
            <path d="M496.996129,100 L310.249129,100 L310.249129,130 L332.042129,130 L329.587129,180 L310.249129,180 L310.249129,210 L328.114129,210 L325.659129,260 L310.249129,260 L310.249129,290 L480.423129,290 L511.754129,117.683 C513.428129,108.476 506.354129,100 496.996129,100 L496.996129,100 Z M390.555129,260 L355.696129,260 L358.151129,210 L396.328129,210 L390.555129,260 Z M399.791129,180 L359.623129,180 L362.078129,130 L405.565129,130 L399.791129,180 Z M455.386129,260 L420.754129,260 L426.527129,210 L464.477129,210 L455.386129,260 Z M469.932129,180 L429.991129,180 L435.764129,130 L479.023129,130 L469.932129,180 Z" id="Shape" fill="#E65858"></path>
            <path d="M476.576129,410 L157.985129,410 C150.243129,410 146.365129,404.83 145.057129,402.607 C143.749129,400.383 141.113129,394.483 144.873129,387.715 L167.766129,346.507 C169.320129,343.71 170.403129,340.678 170.973129,337.53 C171.543129,334.382 171.592129,331.161 171.117129,327.997 L127.666129,38.324 C124.335129,16.118 105.619129,0 83.1651292,0 L15.4241292,0 C7.34712922,0 0.397129221,6.207 0.0171292215,14.275 C-0.388870779,22.889 6.47512922,30 15.0001292,30 L83.1641292,30 C90.5891292,30 96.8971292,35.432 97.9991292,42.775 L141.409129,332.177 L119.000129,372.514 C111.185129,386.58 111.015129,403.825 119.139129,417.715 C127.299129,431.666 141.831129,440 157.985129,440 L477.000129,440 C485.525129,440 492.389129,432.889 491.983129,424.275 C491.603129,416.207 484.653129,410 476.576129,410 L476.576129,410 Z" id="Path" fill="#EF4444"></path>
            <path d="M477.000129,410 L310.249129,410 L310.249129,440 L477.000129,440 C485.284129,440 492.000129,433.284 492.000129,425 C492.000129,416.716 485.284129,410 477.000129,410 Z" id="Path" fill="#D43F3F"></path>
            <path d="M407.000129,470 C382.187129,470 362.000129,449.813 362.000129,425 C362.000129,400.187 382.187129,380 407.000129,380 C431.813129,380 452.000129,400.187 452.000129,425 C452.000129,449.813 431.813129,470 407.000129,470 Z" id="Path" fill="#374151"></path>
            <path d="M217.000129,470 C192.187129,470 172.000129,449.813 172.000129,425 C172.000129,400.187 192.187129,380 217.000129,380 C241.813129,380 262.000129,400.187 262.000129,425 C262.000129,449.813 241.813129,470 217.000129,470 Z" id="Path" fill="#374151"></path>
            <path d="M407.000129,380 L407.000129,470 C431.813129,470 452.000129,449.813 452.000129,425 C452.000129,400.187 431.813129,380 407.000129,380 Z" id="Path" fill="#2C3441"></path>
            <path d="M217.000129,380 L217.000129,470 C241.813129,470 262.000129,449.813 262.000129,425 C262.000129,400.187 241.813129,380 217.000129,380 Z" id="Path" fill="#2C3441"></path>
        </g>
    </g>
</svg>
